<?xml version="1.0" encoding="UTF-8"?>
<svg xmlns="http://www.w3.org/2000/svg" xmlns:xlink="http://www.w3.org/1999/xlink" version="1.1" id="Capa_1" x="0px" y="0px" viewBox="0 0 512 512" style="enable-background:new 0 0 512 512;" xml:space="preserve" width="512" height="512">
<g id="Shopping_Cart_1_">
	<path style="fill:none;stroke:#000000;stroke-width:40;stroke-linecap:round;stroke-linejoin:round;stroke-miterlimit:10;" d="&#10;&#9;&#9;M452,333.516H172c-22.091,0-40-17.909-40-40s17.909-40,40-40h20"/>
	
		<circle style="fill:none;stroke:#000000;stroke-width:40;stroke-linecap:round;stroke-linejoin:round;stroke-miterlimit:10;" cx="172" cy="452" r="40"/>
	
		<circle style="fill:none;stroke:#000000;stroke-width:40;stroke-linecap:round;stroke-linejoin:round;stroke-miterlimit:10;" cx="412" cy="452" r="40"/>
	<path style="fill:none;stroke:#000000;stroke-width:40;stroke-linecap:round;stroke-linejoin:round;stroke-miterlimit:10;" d="&#10;&#9;&#9;M20,20h38.634c18.634,0,34.8,12.867,38.98,31.026l35.914,156.005c6.13,26.628,29.982,46.484,58.472,46.484h100"/>
	<path style="fill:none;stroke:#000000;stroke-width:40;stroke-linecap:round;stroke-linejoin:round;stroke-miterlimit:10;" d="&#10;&#9;&#9;M98.187,53.516H452c22.091,0,40,17.909,40,40c0,5.071-0.944,9.922-2.665,14.386l-41.333,107.193&#10;&#9;&#9;c-8.666,22.475-30.472,38.42-56.002,38.42h-20"/>
</g>















</svg>
