<svg version="1.1" id="Capa_1" xmlns="http://www.w3.org/2000/svg" xmlns:xlink="http://www.w3.org/1999/xlink" x="0px" y="0px" viewBox="0 0 512 512" style="enable-background:new 0 0 512 512;" xml:space="preserve">
<g>
	
		<polyline style="fill:none;stroke:#000000;stroke-width:30;stroke-linecap:round;stroke-linejoin:round;stroke-miterlimit:10;" points="&#10;&#9;&#9;427,350 427,497 85,497 85,350 &#9;"/>
	
		<polygon style="fill:none;stroke:#000000;stroke-width:30;stroke-linecap:round;stroke-linejoin:round;stroke-miterlimit:10;" points="&#10;&#9;&#9;256,15 281.132,55.588 327.499,66.947 296.664,103.391 300.189,151 256,132.935 211.811,151 215.336,103.391 184.501,66.947 &#10;&#9;&#9;230.868,55.588 &#9;"/>
	
		<polygon style="fill:none;stroke:#000000;stroke-width:30;stroke-linecap:round;stroke-linejoin:round;stroke-miterlimit:10;" points="&#10;&#9;&#9;435.25,63.545 456.955,98.599 497,108.409 470.369,139.883 473.414,181 435.25,165.399 397.087,181 400.132,139.883 &#10;&#9;&#9;373.501,108.409 413.546,98.599 &#9;"/>
	
		<polygon style="fill:none;stroke:#000000;stroke-width:30;stroke-linecap:round;stroke-linejoin:round;stroke-miterlimit:10;" points="&#10;&#9;&#9;76.75,63.545 55.045,98.599 15,108.409 41.631,139.883 38.586,181 76.75,165.399 114.913,181 111.868,139.883 138.499,108.409 &#10;&#9;&#9;98.454,98.599 &#9;"/>
	<path style="fill:none;stroke:#000000;stroke-width:30;stroke-linecap:round;stroke-linejoin:round;stroke-miterlimit:10;" d="&#10;&#9;&#9;M286,375h86.97c38.68,0,70.03-31.35,70.03-70.03V241H69v63.97c0,38.68,31.35,70.03,70.03,70.03H226"/>
	<path style="fill:none;stroke:#000000;stroke-width:30;stroke-linecap:round;stroke-linejoin:round;stroke-miterlimit:10;" d="&#10;&#9;&#9;M256,425L256,425c-16.569,0-30-13.431-30-30v-50h60v50C286,411.569,272.569,425,256,425z"/>
	<path style="fill:none;stroke:#000000;stroke-width:30;stroke-linecap:round;stroke-linejoin:round;stroke-miterlimit:10;" d="&#10;&#9;&#9;M85,430c37,0,67,30,67,67"/>
	<path style="fill:none;stroke:#000000;stroke-width:30;stroke-linecap:round;stroke-linejoin:round;stroke-miterlimit:10;" d="&#10;&#9;&#9;M360,497c0-37,30-67,67-67"/>
</g>
<g>
</g>
<g>
</g>
<g>
</g>
<g>
</g>
<g>
</g>
<g>
</g>
<g>
</g>
<g>
</g>
<g>
</g>
<g>
</g>
<g>
</g>
<g>
</g>
<g>
</g>
<g>
</g>
<g>
</g>
</svg>