<?xml version="1.0" encoding="UTF-8" standalone="no"?>
<!-- Created with Inkscape (http://www.inkscape.org/) -->

<svg
   version="1.1"
   id="svg1539"
   xml:space="preserve"
   width="682.66669"
   height="682.66669"
   viewBox="0 0 682.66669 682.66669"
   xmlns="http://www.w3.org/2000/svg"
   xmlns:svg="http://www.w3.org/2000/svg"><defs
     id="defs1543"><clipPath
       clipPathUnits="userSpaceOnUse"
       id="clipPath1553"><path
         d="M 0,512 H 512 V 0 H 0 Z"
         id="path1551" /></clipPath></defs><g
     id="g1545"
     transform="matrix(1.3333333,0,0,-1.3333333,0,682.66667)"><g
       id="g1547"><g
         id="g1549"
         clip-path="url(#clipPath1553)"><g
           id="g1555"
           transform="translate(391,492)"><path
             d="M 0,0 H -371"
             style="fill:none;stroke:#000000;stroke-width:40;stroke-linecap:round;stroke-linejoin:round;stroke-miterlimit:10;stroke-dasharray:none;stroke-opacity:1"
             id="path1557" /></g><g
           id="g1559"
           transform="translate(254,411.9414)"><path
             d="M 0,0 H -192.706"
             style="fill:none;stroke:#000000;stroke-width:40;stroke-linecap:round;stroke-linejoin:round;stroke-miterlimit:10;stroke-dasharray:none;stroke-opacity:1"
             id="path1561" /></g><g
           id="g1563"
           transform="translate(391,20)"><path
             d="M 0,0 H -371"
             style="fill:none;stroke:#000000;stroke-width:40;stroke-linecap:round;stroke-linejoin:round;stroke-miterlimit:10;stroke-dasharray:none;stroke-opacity:1"
             id="path1565" /></g><g
           id="g1567"
           transform="translate(57,491)"><path
             d="m 0,0 v -50 c 0,-48.555 11.294,-115 100.294,-155.814 11.057,-5.071 14,-19.085 14,-30.186 0,-11.101 -2.981,-25.033 -14,-30.186 C 17.294,-305 0,-372.445 0,-421 v -49"
             style="fill:none;stroke:#000000;stroke-width:40;stroke-linecap:round;stroke-linejoin:round;stroke-miterlimit:10;stroke-dasharray:none;stroke-opacity:1"
             id="path1569" /></g><g
           id="g1571"
           transform="translate(341.9922,141.3203)"><path
             d="m 0,0 c 10.926,-24.729 14.008,-49.868 14.008,-71.32 v -49"
             style="fill:none;stroke:#000000;stroke-width:40;stroke-linecap:round;stroke-linejoin:round;stroke-miterlimit:10;stroke-dasharray:none;stroke-opacity:1"
             id="path1573" /></g><g
           id="g1575"
           transform="translate(342.3994,366)"><path
             d="m 0,0 c 11.155,26.039 13.601,52.806 13.601,75 v 50"
             style="fill:none;stroke:#000000;stroke-width:40;stroke-linecap:round;stroke-linejoin:round;stroke-miterlimit:10;stroke-dasharray:none;stroke-opacity:1"
             id="path1577" /></g><g
           id="g1579"
           transform="translate(285,32)"><path
             d="m 0,0 c 0,6.963 -1.438,20.956 -11.076,36.45 -9.767,15.702 -25.21,28.651 -45.9,38.485 -1.671,0.794 -3.293,1.659 -4.863,2.592 -5.368,2.719 -10.603,4.473 -16.202,4.473 -5.531,0 -10.709,-1.754 -15.999,-4.408 -1.673,-0.997 -3.404,-1.917 -5.193,-2.756 -20.3,-9.52 -35.589,-22.357 -45.442,-38.153 C -154.528,20.883 -156,6.918 -156,0"
             style="fill:none;stroke:#000000;stroke-width:40;stroke-linecap:butt;stroke-linejoin:miter;stroke-miterlimit:10;stroke-dasharray:none;stroke-opacity:1"
             id="path1581" /></g><g
           id="g1583"
           transform="translate(375,305)"><path
             d="M 0,0 V -50 H 34"
             style="fill:none;stroke:#000000;stroke-width:40;stroke-linecap:round;stroke-linejoin:round;stroke-miterlimit:10;stroke-dasharray:none;stroke-opacity:1"
             id="path1585" /></g><g
           id="g1587"
           transform="translate(409.3887,146.124)"><path
             d="m 0,0 c -10.272,-3.01 -21.143,-4.624 -32.389,-4.624 -63.512,0 -115,51.487 -115,115 0,63.513 51.488,115 115,115 63.513,0 115,-51.487 115,-115 0,-17.396 -3.862,-33.89 -10.776,-48.671"
             style="fill:none;stroke:#000000;stroke-width:40;stroke-linecap:round;stroke-linejoin:round;stroke-miterlimit:10;stroke-dasharray:none;stroke-opacity:1"
             id="path1589" /></g></g></g></g></svg>
